<svg xmlns="http://www.w3.org/2000/svg" viewBox="2 2 96 96"><clipPath id="ep-drop"><path d="M50 4C42 15.5 16 40 16 62a34 34 0 0 0 68 0C84 40 58 15.5 50 4Z"/></clipPath><g clip-path="url(#ep-drop)"><path fill="#13828D" d="M0 0h100v100H0z"/><circle cx="50" cy="64" r="20" fill="#F68A1F"/><path fill="#13828D" d="M0 54.6h100v2H0zM0 58.9h100v2.6H0z"/><path fill="#0B4A56" d="M0 64h100v40H0z"/><path fill="none" stroke="#fff" stroke-width="3.2" stroke-linecap="round" d="M24 74q6.5-4.5 13 0t13 0 13 0 13 0M31 84q6.5-4.5 13 0t13 0 13 0"/></g></svg>
